<mxfile host="app.diagrams.net" agent="Mozilla/5.0 (X11; Linux x86_64) AppleWebKit/537.36 (KHTML, like Gecko) Chrome/131.0.0.0 Safari/537.36" version="24.7.17">
  <diagram name="Page-1" id="TSFPr093VOYMbW9e3bXQ">
    <mxGraphModel dx="2284" dy="794" grid="1" gridSize="10" guides="1" tooltips="1" connect="1" arrows="1" fold="1" page="1" pageScale="1" pageWidth="850" pageHeight="1100" math="0" shadow="0">
      <root>
        <mxCell id="0" />
        <mxCell id="1" parent="0" />
        <mxCell id="kgA7yNPBa3Pwn43wHURS-11" value="&lt;div align=&quot;center&quot;&gt;&lt;br&gt;&lt;/div&gt;" style="rounded=1;whiteSpace=wrap;html=1;fillColor=#dae8fc;strokeColor=#6c8ebf;" parent="1" vertex="1">
          <mxGeometry x="300" y="1100" width="330" height="590" as="geometry" />
        </mxCell>
        <mxCell id="kgA7yNPBa3Pwn43wHURS-24" value="" style="rounded=1;whiteSpace=wrap;html=1;fillColor=#d5e8d4;strokeColor=#82b366;" parent="1" vertex="1">
          <mxGeometry x="330" y="1220" width="270" height="370" as="geometry" />
        </mxCell>
        <mxCell id="4NxBRebtptWnb1yivDOK-6" value="&lt;div align=&quot;center&quot;&gt;&lt;br&gt;&lt;/div&gt;" style="rounded=1;whiteSpace=wrap;html=1;" parent="1" vertex="1">
          <mxGeometry x="432" y="30" width="368" height="490" as="geometry" />
        </mxCell>
        <mxCell id="4NxBRebtptWnb1yivDOK-2" value="&lt;div align=&quot;center&quot;&gt;&lt;br&gt;&lt;/div&gt;" style="rounded=1;whiteSpace=wrap;html=1;" parent="1" vertex="1">
          <mxGeometry x="-110" y="81" width="272" height="405" as="geometry" />
        </mxCell>
        <mxCell id="4NxBRebtptWnb1yivDOK-23" style="edgeStyle=orthogonalEdgeStyle;rounded=0;orthogonalLoop=1;jettySize=auto;html=1;entryX=0;entryY=0.5;entryDx=0;entryDy=0;fillColor=#0050ef;strokeColor=#001DBC;" parent="1" edge="1">
          <mxGeometry relative="1" as="geometry">
            <mxPoint x="146.9999999999999" y="225" as="sourcePoint" />
            <mxPoint x="467" y="190" as="targetPoint" />
            <Array as="points">
              <mxPoint x="147" y="210" />
              <mxPoint x="310" y="210" />
              <mxPoint x="310" y="190" />
            </Array>
          </mxGeometry>
        </mxCell>
        <mxCell id="gv77yBCQL1L4U5kqONd3-13" style="edgeStyle=orthogonalEdgeStyle;rounded=0;orthogonalLoop=1;jettySize=auto;html=1;entryX=0.5;entryY=0;entryDx=0;entryDy=0;fillColor=#008a00;strokeColor=#005700;" parent="1" source="4NxBRebtptWnb1yivDOK-1" target="gv77yBCQL1L4U5kqONd3-6" edge="1">
          <mxGeometry relative="1" as="geometry" />
        </mxCell>
        <mxCell id="4NxBRebtptWnb1yivDOK-1" value="JA_TEST" style="rounded=1;whiteSpace=wrap;html=1;" parent="1" vertex="1">
          <mxGeometry x="27" y="196" width="120" height="94" as="geometry" />
        </mxCell>
        <mxCell id="4NxBRebtptWnb1yivDOK-5" value="OA_PC_WINDOWS" style="text;html=1;align=center;verticalAlign=middle;resizable=0;points=[];autosize=1;strokeColor=none;fillColor=none;" parent="1" vertex="1">
          <mxGeometry x="-39" y="88" width="130" height="30" as="geometry" />
        </mxCell>
        <mxCell id="4NxBRebtptWnb1yivDOK-7" value="&lt;div&gt;VM&lt;/div&gt;" style="text;html=1;align=center;verticalAlign=middle;resizable=0;points=[];autosize=1;strokeColor=none;fillColor=none;" parent="1" vertex="1">
          <mxGeometry x="587" y="50" width="40" height="30" as="geometry" />
        </mxCell>
        <mxCell id="gv77yBCQL1L4U5kqONd3-4" style="edgeStyle=orthogonalEdgeStyle;rounded=0;orthogonalLoop=1;jettySize=auto;html=1;fillColor=#0050ef;strokeColor=#001DBC;" parent="1" edge="1">
          <mxGeometry relative="1" as="geometry">
            <mxPoint x="704" y="270" as="sourcePoint" />
            <mxPoint x="704" y="330" as="targetPoint" />
          </mxGeometry>
        </mxCell>
        <mxCell id="4NxBRebtptWnb1yivDOK-9" value="Jobarg_server" style="rounded=1;whiteSpace=wrap;html=1;" parent="1" vertex="1">
          <mxGeometry x="658" y="210" width="120" height="60" as="geometry" />
        </mxCell>
        <mxCell id="4NxBRebtptWnb1yivDOK-12" value="ssh" style="text;html=1;align=center;verticalAlign=middle;resizable=0;points=[];autosize=1;strokeColor=none;fillColor=none;" parent="1" vertex="1">
          <mxGeometry x="270" y="180" width="40" height="30" as="geometry" />
        </mxCell>
        <mxCell id="4NxBRebtptWnb1yivDOK-19" style="edgeStyle=orthogonalEdgeStyle;rounded=0;orthogonalLoop=1;jettySize=auto;html=1;entryX=0;entryY=0.25;entryDx=0;entryDy=0;fillColor=#0050ef;strokeColor=#001DBC;" parent="1" source="4NxBRebtptWnb1yivDOK-13" target="4NxBRebtptWnb1yivDOK-9" edge="1">
          <mxGeometry relative="1" as="geometry" />
        </mxCell>
        <mxCell id="4NxBRebtptWnb1yivDOK-13" value="JA_EXEC" style="rounded=1;whiteSpace=wrap;html=1;" parent="1" vertex="1">
          <mxGeometry x="467" y="160" width="120" height="60" as="geometry" />
        </mxCell>
        <mxCell id="4NxBRebtptWnb1yivDOK-14" value="&lt;div&gt;JA_GET_INFO&lt;/div&gt;" style="rounded=1;whiteSpace=wrap;html=1;" parent="1" vertex="1">
          <mxGeometry x="467" y="254" width="120" height="60" as="geometry" />
        </mxCell>
        <mxCell id="4NxBRebtptWnb1yivDOK-20" style="edgeStyle=orthogonalEdgeStyle;rounded=0;orthogonalLoop=1;jettySize=auto;html=1;entryX=0.99;entryY=0.4;entryDx=0;entryDy=0;entryPerimeter=0;fillColor=#60a917;strokeColor=#2D7600;exitX=0;exitY=0.75;exitDx=0;exitDy=0;" parent="1" source="4NxBRebtptWnb1yivDOK-9" edge="1">
          <mxGeometry relative="1" as="geometry">
            <mxPoint x="650" y="252" as="sourcePoint" />
            <mxPoint x="585.8" y="288.9999999999999" as="targetPoint" />
            <Array as="points">
              <mxPoint x="658" y="252" />
              <mxPoint x="620" y="252" />
              <mxPoint x="620" y="289" />
            </Array>
          </mxGeometry>
        </mxCell>
        <mxCell id="gv77yBCQL1L4U5kqONd3-5" style="edgeStyle=orthogonalEdgeStyle;rounded=0;orthogonalLoop=1;jettySize=auto;html=1;fillColor=#60a917;strokeColor=#2D7600;" parent="1" edge="1">
          <mxGeometry relative="1" as="geometry">
            <mxPoint x="734" y="330" as="sourcePoint" />
            <mxPoint x="734" y="270" as="targetPoint" />
          </mxGeometry>
        </mxCell>
        <mxCell id="gv77yBCQL1L4U5kqONd3-1" value="Jobarg_agent" style="rounded=1;whiteSpace=wrap;html=1;" parent="1" vertex="1">
          <mxGeometry x="658" y="330" width="120" height="60" as="geometry" />
        </mxCell>
        <mxCell id="gv77yBCQL1L4U5kqONd3-3" style="edgeStyle=orthogonalEdgeStyle;rounded=0;orthogonalLoop=1;jettySize=auto;html=1;exitX=0.5;exitY=1;exitDx=0;exitDy=0;" parent="1" source="4NxBRebtptWnb1yivDOK-9" target="4NxBRebtptWnb1yivDOK-9" edge="1">
          <mxGeometry relative="1" as="geometry" />
        </mxCell>
        <mxCell id="gv77yBCQL1L4U5kqONd3-6" value="Log file" style="rounded=1;whiteSpace=wrap;html=1;" parent="1" vertex="1">
          <mxGeometry x="27" y="350" width="120" height="60" as="geometry" />
        </mxCell>
        <mxCell id="gv77yBCQL1L4U5kqONd3-9" value="ssh" style="text;html=1;align=center;verticalAlign=middle;resizable=0;points=[];autosize=1;strokeColor=none;fillColor=none;" parent="1" vertex="1">
          <mxGeometry x="270" y="220" width="40" height="30" as="geometry" />
        </mxCell>
        <mxCell id="gv77yBCQL1L4U5kqONd3-10" style="edgeStyle=orthogonalEdgeStyle;rounded=0;orthogonalLoop=1;jettySize=auto;html=1;entryX=0.942;entryY=0.936;entryDx=0;entryDy=0;entryPerimeter=0;fillColor=#60a917;strokeColor=#2D7600;" parent="1" source="4NxBRebtptWnb1yivDOK-14" target="4NxBRebtptWnb1yivDOK-1" edge="1">
          <mxGeometry relative="1" as="geometry" />
        </mxCell>
        <mxCell id="gv77yBCQL1L4U5kqONd3-11" value="ssh" style="text;html=1;align=center;verticalAlign=middle;resizable=0;points=[];autosize=1;strokeColor=none;fillColor=none;" parent="1" vertex="1">
          <mxGeometry x="270" y="254" width="40" height="30" as="geometry" />
        </mxCell>
        <mxCell id="gv77yBCQL1L4U5kqONd3-12" style="edgeStyle=orthogonalEdgeStyle;rounded=0;orthogonalLoop=1;jettySize=auto;html=1;entryX=0.005;entryY=0.12;entryDx=0;entryDy=0;entryPerimeter=0;fillColor=#0050ef;strokeColor=#001DBC;" parent="1" source="4NxBRebtptWnb1yivDOK-1" target="4NxBRebtptWnb1yivDOK-14" edge="1">
          <mxGeometry relative="1" as="geometry" />
        </mxCell>
        <mxCell id="kgA7yNPBa3Pwn43wHURS-1" value="&lt;div align=&quot;center&quot;&gt;&lt;br&gt;&lt;/div&gt;" style="rounded=1;whiteSpace=wrap;html=1;" parent="1" vertex="1">
          <mxGeometry x="-160" y="1100" width="280" height="590" as="geometry" />
        </mxCell>
        <mxCell id="kgA7yNPBa3Pwn43wHURS-2" value="&lt;font style=&quot;font-size: 30px;&quot;&gt;Ja_Test&lt;/font&gt;" style="text;html=1;align=center;verticalAlign=middle;resizable=0;points=[];autosize=1;strokeColor=none;fillColor=none;" parent="1" vertex="1">
          <mxGeometry x="-85" y="1120" width="130" height="50" as="geometry" />
        </mxCell>
        <mxCell id="kgA7yNPBa3Pwn43wHURS-4" value="Ticket_1" style="rounded=1;whiteSpace=wrap;html=1;fillColor=#dae8fc;strokeColor=#6c8ebf;" parent="1" vertex="1">
          <mxGeometry x="-150" y="1240" width="120" height="94" as="geometry" />
        </mxCell>
        <mxCell id="kgA7yNPBa3Pwn43wHURS-5" value="Ticket_2" style="rounded=1;whiteSpace=wrap;html=1;fillColor=#dae8fc;strokeColor=#6c8ebf;" parent="1" vertex="1">
          <mxGeometry x="-10" y="1240" width="120" height="94" as="geometry" />
        </mxCell>
        <mxCell id="kgA7yNPBa3Pwn43wHURS-6" value="Ticket_4" style="rounded=1;whiteSpace=wrap;html=1;fillColor=#dae8fc;strokeColor=#6c8ebf;" parent="1" vertex="1">
          <mxGeometry x="-10" y="1360" width="120" height="94" as="geometry" />
        </mxCell>
        <mxCell id="kgA7yNPBa3Pwn43wHURS-8" value="Ticket_5" style="rounded=1;whiteSpace=wrap;html=1;fillColor=#dae8fc;strokeColor=#6c8ebf;" parent="1" vertex="1">
          <mxGeometry x="-150" y="1470" width="120" height="94" as="geometry" />
        </mxCell>
        <mxCell id="kgA7yNPBa3Pwn43wHURS-9" value="Ticket_5" style="rounded=1;whiteSpace=wrap;html=1;fillColor=#dae8fc;strokeColor=#6c8ebf;" parent="1" vertex="1">
          <mxGeometry x="-10" y="1470" width="120" height="94" as="geometry" />
        </mxCell>
        <mxCell id="kgA7yNPBa3Pwn43wHURS-10" value="Ticket_3" style="rounded=1;whiteSpace=wrap;html=1;fillColor=#dae8fc;strokeColor=#6c8ebf;" parent="1" vertex="1">
          <mxGeometry x="-150" y="1360" width="120" height="94" as="geometry" />
        </mxCell>
        <mxCell id="kgA7yNPBa3Pwn43wHURS-13" value="" style="endArrow=none;html=1;rounded=0;exitX=1;exitY=0.5;exitDx=0;exitDy=0;dashed=1;" parent="1" source="kgA7yNPBa3Pwn43wHURS-5" edge="1">
          <mxGeometry width="50" height="50" relative="1" as="geometry">
            <mxPoint x="140" y="1342.33" as="sourcePoint" />
            <mxPoint x="300" y="1287" as="targetPoint" />
          </mxGeometry>
        </mxCell>
        <mxCell id="kgA7yNPBa3Pwn43wHURS-14" value="&lt;span style=&quot;font-size: 30px;&quot;&gt;Ticket_2&lt;/span&gt;" style="text;html=1;align=center;verticalAlign=middle;resizable=0;points=[];autosize=1;strokeColor=none;fillColor=none;" parent="1" vertex="1">
          <mxGeometry x="395" y="1110" width="140" height="50" as="geometry" />
        </mxCell>
        <mxCell id="kgA7yNPBa3Pwn43wHURS-15" value="Testcase_1" style="rounded=1;whiteSpace=wrap;html=1;fillColor=#e1d5e7;strokeColor=#9673a6;" parent="1" vertex="1">
          <mxGeometry x="342" y="1260" width="120" height="94" as="geometry" />
        </mxCell>
        <mxCell id="kgA7yNPBa3Pwn43wHURS-16" value="Testcase_2" style="rounded=1;whiteSpace=wrap;html=1;fillColor=#e1d5e7;strokeColor=#9673a6;" parent="1" vertex="1">
          <mxGeometry x="470" y="1260" width="120" height="94" as="geometry" />
        </mxCell>
        <mxCell id="kgA7yNPBa3Pwn43wHURS-17" value="Testcase_4" style="rounded=1;whiteSpace=wrap;html=1;fillColor=#e1d5e7;strokeColor=#9673a6;" parent="1" vertex="1">
          <mxGeometry x="470" y="1365" width="120" height="94" as="geometry" />
        </mxCell>
        <mxCell id="kgA7yNPBa3Pwn43wHURS-18" value="Testcase_5" style="rounded=1;whiteSpace=wrap;html=1;fillColor=#e1d5e7;strokeColor=#9673a6;" parent="1" vertex="1">
          <mxGeometry x="342" y="1470" width="120" height="94" as="geometry" />
        </mxCell>
        <mxCell id="kgA7yNPBa3Pwn43wHURS-19" value="Testcase_5" style="rounded=1;whiteSpace=wrap;html=1;fillColor=#e1d5e7;strokeColor=#9673a6;" parent="1" vertex="1">
          <mxGeometry x="470" y="1470" width="120" height="94" as="geometry" />
        </mxCell>
        <mxCell id="kgA7yNPBa3Pwn43wHURS-20" value="Testcase_3" style="rounded=1;whiteSpace=wrap;html=1;fillColor=#e1d5e7;strokeColor=#9673a6;" parent="1" vertex="1">
          <mxGeometry x="342" y="1365" width="120" height="94" as="geometry" />
        </mxCell>
        <mxCell id="kgA7yNPBa3Pwn43wHURS-23" value="&lt;span style=&quot;font-size: 15px; text-wrap: nowrap;&quot;&gt;Ticket description&lt;/span&gt;" style="rounded=1;whiteSpace=wrap;html=1;fillColor=#d5e8d4;strokeColor=#82b366;" parent="1" vertex="1">
          <mxGeometry x="336" y="1180" width="258" height="30" as="geometry" />
        </mxCell>
        <mxCell id="kgA7yNPBa3Pwn43wHURS-25" value="&lt;span style=&quot;font-size: 15px;&quot;&gt;Test cases&lt;/span&gt;" style="text;html=1;align=center;verticalAlign=middle;resizable=0;points=[];autosize=1;strokeColor=none;fillColor=none;" parent="1" vertex="1">
          <mxGeometry x="420" y="1220" width="90" height="30" as="geometry" />
        </mxCell>
        <mxCell id="kgA7yNPBa3Pwn43wHURS-27" value="&lt;div align=&quot;center&quot;&gt;&lt;br&gt;&lt;/div&gt;" style="rounded=1;whiteSpace=wrap;html=1;fillColor=#e1d5e7;strokeColor=#9673a6;" parent="1" vertex="1">
          <mxGeometry x="775" y="1100" width="330" height="590" as="geometry" />
        </mxCell>
        <mxCell id="kgA7yNPBa3Pwn43wHURS-28" value="" style="rounded=1;whiteSpace=wrap;html=1;fillColor=#647687;strokeColor=#314354;fontColor=#ffffff;" parent="1" vertex="1">
          <mxGeometry x="805" y="1365" width="270" height="220" as="geometry" />
        </mxCell>
        <mxCell id="kgA7yNPBa3Pwn43wHURS-29" value="&lt;span style=&quot;font-size: 30px;&quot;&gt;Testcase_2&lt;/span&gt;" style="text;html=1;align=center;verticalAlign=middle;resizable=0;points=[];autosize=1;strokeColor=none;fillColor=none;" parent="1" vertex="1">
          <mxGeometry x="850" y="1110" width="180" height="50" as="geometry" />
        </mxCell>
        <mxCell id="kgA7yNPBa3Pwn43wHURS-33" value="Log" style="rounded=1;whiteSpace=wrap;html=1;" parent="1" vertex="1">
          <mxGeometry x="810.5" y="1470" width="259" height="40" as="geometry" />
        </mxCell>
        <mxCell id="kgA7yNPBa3Pwn43wHURS-36" value="&lt;span style=&quot;font-size: 15px; text-wrap: nowrap;&quot;&gt;Testcase description&lt;/span&gt;" style="rounded=1;whiteSpace=wrap;html=1;fillColor=#647687;strokeColor=#314354;fontColor=#ffffff;" parent="1" vertex="1">
          <mxGeometry x="816" y="1230" width="258" height="30" as="geometry" />
        </mxCell>
        <mxCell id="kgA7yNPBa3Pwn43wHURS-37" value="&lt;span style=&quot;font-size: 15px;&quot;&gt;&lt;font color=&quot;#ffffff&quot;&gt;Logs&lt;/font&gt;&lt;/span&gt;" style="text;html=1;align=center;verticalAlign=middle;resizable=0;points=[];autosize=1;" parent="1" vertex="1">
          <mxGeometry x="910" y="1370" width="60" height="30" as="geometry" />
        </mxCell>
        <mxCell id="kgA7yNPBa3Pwn43wHURS-38" value="" style="endArrow=none;html=1;rounded=0;exitX=1;exitY=0.5;exitDx=0;exitDy=0;dashed=1;entryX=-0.012;entryY=0.352;entryDx=0;entryDy=0;entryPerimeter=0;" parent="1" source="kgA7yNPBa3Pwn43wHURS-16" target="kgA7yNPBa3Pwn43wHURS-27" edge="1">
          <mxGeometry width="50" height="50" relative="1" as="geometry">
            <mxPoint x="580" y="1070" as="sourcePoint" />
            <mxPoint x="770" y="1070" as="targetPoint" />
          </mxGeometry>
        </mxCell>
        <mxCell id="kgA7yNPBa3Pwn43wHURS-39" value="Log" style="rounded=1;whiteSpace=wrap;html=1;" parent="1" vertex="1">
          <mxGeometry x="810.5" y="1419" width="259" height="40" as="geometry" />
        </mxCell>
        <mxCell id="kgA7yNPBa3Pwn43wHURS-40" value="Log" style="rounded=1;whiteSpace=wrap;html=1;" parent="1" vertex="1">
          <mxGeometry x="810.5" y="1524" width="259" height="40" as="geometry" />
        </mxCell>
        <mxCell id="kgA7yNPBa3Pwn43wHURS-43" value="&lt;span style=&quot;font-size: 15px; text-wrap: nowrap;&quot;&gt;Testcase function()&lt;/span&gt;" style="rounded=1;whiteSpace=wrap;html=1;fillColor=#647687;strokeColor=#314354;fontColor=#ffffff;" parent="1" vertex="1">
          <mxGeometry x="817" y="1304" width="258" height="30" as="geometry" />
        </mxCell>
        <mxCell id="kgA7yNPBa3Pwn43wHURS-44" value="" style="shape=flexArrow;endArrow=classic;html=1;rounded=0;fillColor=#1ba1e2;strokeColor=#006EAF;" parent="1" edge="1">
          <mxGeometry width="50" height="50" relative="1" as="geometry">
            <mxPoint x="190" y="1010" as="sourcePoint" />
            <mxPoint x="710" y="1010" as="targetPoint" />
          </mxGeometry>
        </mxCell>
        <mxCell id="EFfEMhPxB99IKdlydbC8-1" value="Jobarg_agent" style="rounded=1;whiteSpace=wrap;html=1;" parent="1" vertex="1">
          <mxGeometry x="-105" y="350" width="105" height="60" as="geometry" />
        </mxCell>
        <mxCell id="6So394KROS4OtmH6vHug-2" value="&lt;p style=&quot;margin: 4px 0px 0px; text-align: center; font-size: 18px;&quot;&gt;&lt;font style=&quot;font-size: 18px;&quot;&gt;&lt;i style=&quot;&quot;&gt;&amp;lt;&amp;lt;Interface&amp;gt;&amp;gt;&lt;/i&gt;&lt;br&gt;&lt;b style=&quot;&quot;&gt;Interface&lt;/b&gt;&lt;/font&gt;&lt;/p&gt;&lt;p style=&quot;margin: 0px 0px 0px 4px; font-size: 18px;&quot;&gt;&lt;font style=&quot;font-size: 18px;&quot;&gt;&lt;br&gt;&lt;/font&gt;&lt;/p&gt;&lt;hr size=&quot;1&quot; style=&quot;border-style: solid; font-size: 18px;&quot;&gt;&lt;p style=&quot;margin: 0px 0px 0px 4px; font-size: 18px;&quot;&gt;&lt;font style=&quot;font-size: 18px;&quot;&gt;// Getters&lt;/font&gt;&lt;/p&gt;&lt;p style=&quot;margin: 0px 0px 0px 4px; font-size: 18px;&quot;&gt;&lt;font style=&quot;font-size: 18px;&quot;&gt;+ Get_Host_name() string&lt;/font&gt;&lt;/p&gt;&lt;p style=&quot;margin: 0px 0px 0px 4px; font-size: 18px;&quot;&gt;&lt;font style=&quot;font-size: 18px;&quot;&gt;+ Get_Host_run_username() string&lt;/font&gt;&lt;/p&gt;&lt;p style=&quot;margin: 0px 0px 0px 4px; font-size: 18px;&quot;&gt;&lt;font style=&quot;font-size: 18px;&quot;&gt;+ Get_Host_ip() string&lt;/font&gt;&lt;/p&gt;&lt;p style=&quot;margin: 0px 0px 0px 4px; font-size: 18px;&quot;&gt;&lt;font style=&quot;font-size: 18px;&quot;&gt;+ Get_Host_dns() string&lt;/font&gt;&lt;/p&gt;&lt;p style=&quot;margin: 0px 0px 0px 4px; font-size: 18px;&quot;&gt;&lt;font style=&quot;font-size: 18px;&quot;&gt;+ Get_Host_ssh_client() *ssh.Client&lt;/font&gt;&lt;/p&gt;&lt;p style=&quot;margin: 0px 0px 0px 4px; font-size: 18px;&quot;&gt;&lt;font style=&quot;font-size: 18px;&quot;&gt;+ Get_Host_use_ip() bool&lt;/font&gt;&lt;/p&gt;&lt;p style=&quot;margin: 0px 0px 0px 4px; font-size: 18px;&quot;&gt;&lt;font style=&quot;font-size: 18px;&quot;&gt;+ Get_Host_connect_port() int&lt;/font&gt;&lt;/p&gt;&lt;p style=&quot;margin: 0px 0px 0px 4px; font-size: 18px;&quot;&gt;&lt;font style=&quot;font-size: 18px;&quot;&gt;+ Get_Host_type() Host_type&lt;/font&gt;&lt;/p&gt;&lt;p style=&quot;margin: 0px 0px 0px 4px; font-size: 18px;&quot;&gt;&lt;font style=&quot;font-size: 18px;&quot;&gt;&lt;br&gt;&lt;/font&gt;&lt;/p&gt;&lt;p style=&quot;margin: 0px 0px 0px 4px; font-size: 18px;&quot;&gt;&lt;font style=&quot;font-size: 18px;&quot;&gt;// Setters&lt;/font&gt;&lt;/p&gt;&lt;p style=&quot;margin: 0px 0px 0px 4px; font-size: 18px;&quot;&gt;&lt;font style=&quot;font-size: 18px;&quot;&gt;+ Set_Host_name(name string)&lt;/font&gt;&lt;/p&gt;&lt;p style=&quot;margin: 0px 0px 0px 4px; font-size: 18px;&quot;&gt;&lt;font style=&quot;font-size: 18px;&quot;&gt;+ Set_Host_run_username(username string)&lt;/font&gt;&lt;/p&gt;&lt;p style=&quot;margin: 0px 0px 0px 4px; font-size: 18px;&quot;&gt;&lt;font style=&quot;font-size: 18px;&quot;&gt;+ Set_Host_ip(ip string)&lt;/font&gt;&lt;/p&gt;&lt;p style=&quot;margin: 0px 0px 0px 4px; font-size: 18px;&quot;&gt;&lt;font style=&quot;font-size: 18px;&quot;&gt;+ Set_Host_dns(dns string)&lt;/font&gt;&lt;/p&gt;&lt;p style=&quot;margin: 0px 0px 0px 4px; font-size: 18px;&quot;&gt;&lt;font style=&quot;font-size: 18px;&quot;&gt;+ Set_Host_ssh_client(client *ssh.Client)&lt;/font&gt;&lt;/p&gt;&lt;p style=&quot;margin: 0px 0px 0px 4px; font-size: 18px;&quot;&gt;&lt;font style=&quot;font-size: 18px;&quot;&gt;+ Set_Host_use_ip(useIP bool)&lt;/font&gt;&lt;/p&gt;&lt;p style=&quot;margin: 0px 0px 0px 4px; font-size: 18px;&quot;&gt;&lt;font style=&quot;font-size: 18px;&quot;&gt;+ Set_Host_connect_port(port int)&lt;/font&gt;&lt;/p&gt;&lt;p style=&quot;margin: 0px 0px 0px 4px; font-size: 18px;&quot;&gt;&lt;font style=&quot;font-size: 18px;&quot;&gt;+ Set_Host_type(hostType Host_type)&lt;/font&gt;&lt;/p&gt;&lt;p style=&quot;margin: 0px 0px 0px 4px; font-size: 18px;&quot;&gt;&lt;font style=&quot;font-size: 18px;&quot;&gt;&lt;br&gt;&lt;/font&gt;&lt;/p&gt;&lt;p style=&quot;margin: 0px 0px 0px 4px; font-size: 18px;&quot;&gt;&lt;font style=&quot;font-size: 18px;&quot;&gt;// Host utility functions&lt;/font&gt;&lt;/p&gt;&lt;p style=&quot;margin: 0px 0px 0px 4px; font-size: 18px;&quot;&gt;&lt;font style=&quot;font-size: 18px;&quot;&gt;+ Register(public_key string) error&amp;nbsp; &amp;nbsp; &amp;nbsp; &amp;nbsp;&lt;/font&gt;&lt;/p&gt;&lt;p style=&quot;margin: 0px 0px 0px 4px; font-size: 18px;&quot;&gt;&lt;font style=&quot;font-size: 18px;&quot;&gt;+ Run_cmd(cmd string) ([]byte, error)&amp;nbsp; &amp;nbsp; &amp;nbsp;&lt;/font&gt;&lt;/p&gt;&lt;p style=&quot;margin: 0px 0px 0px 4px; font-size: 18px;&quot;&gt;&lt;font style=&quot;font-size: 18px;&quot;&gt;+ Run_cmd_str(cmd string) (string, error)&lt;/font&gt;&lt;/p&gt;" style="verticalAlign=top;align=left;overflow=fill;html=1;whiteSpace=wrap;" vertex="1" parent="1">
          <mxGeometry x="245" y="1840" width="440" height="640" as="geometry" />
        </mxCell>
      </root>
    </mxGraphModel>
  </diagram>
</mxfile>
